<svg width="180" height="56" viewBox="0 0 180 56" fill="none" xmlns="http://www.w3.org/2000/svg">
<path d="M17.28 55.104C15.488 55.104 13.728 54.848 12 54.336C10.336 53.888 8.768 53.216 7.296 52.32C5.888 51.424 4.608 50.4 3.456 49.248C2.368 48.096 1.504 46.848 0.863996 45.504C0.287996 44.096 -4.11272e-06 42.624 -4.11272e-06 41.088H7.488C7.488 41.152 7.52 41.6 7.584 42.432C7.712 43.264 8.064 44.224 8.64 45.312C9.216 46.336 10.144 47.232 11.424 48C12.768 48.768 14.656 49.152 17.088 49.152C18.944 49.152 20.512 48.928 21.792 48.48C23.136 48.032 24.16 47.424 24.864 46.656C25.568 45.824 25.888 44.832 25.824 43.68C25.824 42.08 25.216 40.832 24 39.936C22.784 39.04 21.216 38.336 19.296 37.824C17.376 37.248 15.36 36.704 13.248 36.192C11.136 35.68 9.12 35.008 7.2 34.176C5.28 33.28 3.712 32.096 2.496 30.624C1.344 29.088 0.799996 27.04 0.863996 24.48C0.863996 21.024 2.304 18.368 5.184 16.512C8.128 14.592 11.84 13.632 16.32 13.632C18.496 13.632 20.608 13.888 22.656 14.4C24.704 14.912 26.528 15.712 28.128 16.8C29.792 17.888 31.104 19.328 32.064 21.12C33.088 22.912 33.568 25.12 33.504 27.744H26.112C26.176 26.08 25.888 24.736 25.248 23.712C24.672 22.688 23.872 21.92 22.848 21.408C21.824 20.832 20.736 20.448 19.584 20.256C18.496 20 17.44 19.872 16.416 19.872C13.856 19.872 11.84 20.352 10.368 21.312C8.896 22.208 8.16 23.424 8.16 24.96C8.16 26.56 8.768 27.808 9.984 28.704C11.2 29.6 12.768 30.304 14.688 30.816C16.608 31.328 18.656 31.84 20.832 32.352C23.008 32.864 25.056 33.568 26.976 34.464C28.896 35.296 30.464 36.48 31.68 38.016C32.896 39.552 33.504 41.6 33.504 44.16C33.504 46.656 32.8 48.704 31.392 50.304C30.048 51.904 28.16 53.12 25.728 53.952C23.296 54.72 20.48 55.104 17.28 55.104ZM50.4172 55.104C47.7932 55.104 45.5852 54.688 43.7932 53.856C42.0652 53.024 40.6572 51.904 39.5692 50.496C38.5452 49.088 37.7772 47.52 37.2652 45.792C36.7532 44.064 36.4012 42.272 36.2092 40.416C36.0172 38.56 35.9212 36.768 35.9212 35.04V14.88H43.7932V35.04C43.7932 37.344 44.0172 39.488 44.4652 41.472C44.9132 43.392 45.8412 44.96 47.2492 46.176C48.6572 47.392 50.7372 48 53.4892 48C56.1772 48 58.2572 47.392 59.7292 46.176C61.2012 44.896 62.2252 43.296 62.8012 41.376C63.4412 39.456 63.7932 37.472 63.8572 35.424V14.88H72.1132V54.144H65.2972L63.9532 45.984H63.7612C63.5692 46.624 63.1852 47.456 62.6092 48.48C62.0332 49.44 61.2332 50.432 60.2092 51.456C59.1852 52.48 57.8412 53.344 56.1772 54.048C54.5772 54.752 52.6572 55.104 50.4172 55.104ZM77.2132 54.144V14.88H85.1812V54.144H77.2132ZM81.2452 9.408C79.3892 9.408 78.1092 8.92799 77.4052 7.96799C76.7652 7.00799 76.4452 5.88799 76.4452 4.60799C76.4452 3.39199 76.7652 2.33599 77.4052 1.43999C78.1092 0.479996 79.3892 -3.8147e-06 81.2452 -3.8147e-06C83.1012 -3.8147e-06 84.3172 0.479996 84.8932 1.43999C85.5332 2.33599 85.8532 3.39199 85.8532 4.60799C85.8532 5.88799 85.5332 7.00799 84.8932 7.96799C84.3172 8.92799 83.1012 9.408 81.2452 9.408ZM90.9022 54.144V0.0959949H98.7742V54.144H90.9022ZM121.396 55.104C116.98 55.104 113.364 54.144 110.548 52.224C107.732 50.24 105.652 47.712 104.308 44.64C102.964 41.504 102.292 38.272 102.292 34.944C102.228 31.168 102.932 27.744 104.404 24.672C105.94 21.6 108.116 19.168 110.932 17.376C113.812 15.584 117.236 14.688 121.204 14.688C124.66 14.688 127.732 15.456 130.42 16.992C133.108 18.464 135.252 20.576 136.852 23.328C138.452 26.016 139.316 29.216 139.444 32.928C139.508 33.12 139.54 33.504 139.54 34.08C139.54 34.592 139.54 35.04 139.54 35.424H109.876C109.876 39.52 110.868 42.72 112.852 45.024C114.9 47.264 117.716 48.384 121.3 48.384C123.988 48.384 126.26 47.712 128.116 46.368C130.036 44.96 131.22 43.104 131.668 40.8H139.444C139.06 43.488 138.1 45.92 136.564 48.096C135.028 50.272 132.98 52 130.42 53.28C127.86 54.496 124.852 55.104 121.396 55.104ZM110.164 31.488H131.476C131.412 30.784 131.22 29.856 130.9 28.704C130.644 27.552 130.132 26.432 129.364 25.344C128.596 24.192 127.54 23.232 126.196 22.464C124.852 21.696 123.124 21.312 121.012 21.312C119.092 21.312 117.46 21.632 116.116 22.272C114.772 22.912 113.684 23.776 112.852 24.864C112.02 25.888 111.38 27.008 110.932 28.224C110.548 29.376 110.292 30.464 110.164 31.488ZM140.215 54.144L154.615 33.888L140.983 14.88H149.815L159.607 29.088L169.399 14.88H178.327L164.695 33.888L179.191 54.144H170.263L159.607 38.784L149.047 54.144H140.215Z" fill="#2B9DF4"/>
</svg>
